<?xml version="1.0" encoding="utf-8"?>
<!-- Generator: Adobe Illustrator 15.0.2, SVG Export Plug-In . SVG Version: 6.00 Build 0)  -->
<!DOCTYPE svg PUBLIC "-//W3C//DTD SVG 1.1//EN" "http://www.w3.org/Graphics/SVG/1.1/DTD/svg11.dtd">
<svg version="1.1" id="Layer_1" xmlns="http://www.w3.org/2000/svg" xmlns:xlink="http://www.w3.org/1999/xlink" x="0px" y="0px"
	 width="154.25px" height="25.872px" viewBox="0 0 154.25 25.872" enable-background="new 0 0 154.25 25.872" xml:space="preserve">
<g>
	<path fill="#663399" d="M84.53,6.962v1.189h-3.998v1.983h3.592v1.125h-3.592v2.004h4.127v1.189h-5.391V6.962H84.53z"/>
	<path fill="#663399" d="M90.788,14.454h-1.094v-0.761c-0.471,0.564-1.104,0.847-1.896,0.847c-0.594,0-1.084-0.168-1.475-0.504
		c-0.389-0.336-0.582-0.784-0.582-1.345c0-0.561,0.205-0.98,0.619-1.259c0.416-0.279,0.977-0.418,1.684-0.418h1.555v-0.214
		c0-0.757-0.422-1.136-1.266-1.136c-0.529,0-1.078,0.193-1.65,0.579l-0.535-0.75c0.693-0.55,1.479-0.825,2.357-0.825
		c0.672,0,1.219,0.17,1.645,0.509c0.426,0.339,0.639,0.874,0.639,1.603V14.454z M89.587,12.332v-0.482h-1.35
		c-0.865,0-1.297,0.272-1.297,0.815c0,0.278,0.107,0.491,0.32,0.638c0.215,0.146,0.514,0.219,0.896,0.219
		c0.381,0,0.715-0.107,1.002-0.321C89.444,12.985,89.587,12.696,89.587,12.332z"/>
	<path fill="#663399" d="M96.546,12.75c0,0.543-0.195,0.977-0.588,1.302c-0.395,0.325-0.898,0.488-1.512,0.488
		c-0.414,0-0.846-0.075-1.291-0.225c-0.447-0.15-0.842-0.361-1.186-0.632l0.58-0.933c0.664,0.5,1.307,0.75,1.928,0.75
		c0.271,0,0.486-0.062,0.645-0.188c0.156-0.125,0.234-0.284,0.234-0.477c0-0.286-0.379-0.543-1.135-0.772
		c-0.059-0.021-0.102-0.036-0.129-0.042c-1.186-0.322-1.779-0.857-1.779-1.608c0-0.528,0.205-0.952,0.615-1.27
		c0.412-0.317,0.945-0.477,1.604-0.477c0.656,0,1.279,0.193,1.865,0.579l-0.451,0.89c-0.465-0.307-0.969-0.461-1.512-0.461
		c-0.285,0-0.518,0.052-0.695,0.155c-0.18,0.104-0.268,0.259-0.268,0.466c0,0.186,0.092,0.321,0.277,0.407
		c0.129,0.064,0.309,0.125,0.541,0.182s0.438,0.114,0.617,0.171c0.178,0.058,0.352,0.122,0.52,0.193
		c0.168,0.072,0.348,0.172,0.541,0.3C96.354,11.807,96.546,12.207,96.546,12.75z"/>
	<path fill="#663399" d="M99.403,9.717v2.894c0,0.271,0.072,0.488,0.215,0.648s0.344,0.241,0.6,0.241
		c0.258,0,0.504-0.125,0.74-0.375l0.492,0.847c-0.42,0.379-0.887,0.568-1.398,0.568c-0.51,0-0.945-0.177-1.307-0.531
		s-0.541-0.831-0.541-1.431V9.717h-0.719V8.752h0.719v-1.79h1.199v1.79h1.502v0.965H99.403z"/>
	<path fill="#663399" d="M106.776,14.454h-1.264V6.962h1.973l2.26,4.705l2.262-4.705h1.961v7.491h-1.264V8.602l-2.615,5.198h-0.707
		l-2.605-5.198V14.454z"/>
	<path fill="#663399" d="M115.989,7.616c-0.15-0.15-0.227-0.329-0.227-0.536c0-0.207,0.076-0.386,0.227-0.536
		c0.148-0.15,0.328-0.225,0.535-0.225s0.387,0.075,0.535,0.225c0.15,0.15,0.227,0.329,0.227,0.536c0,0.208-0.076,0.386-0.227,0.536
		c-0.148,0.15-0.328,0.225-0.535,0.225S116.138,7.766,115.989,7.616z M117.114,14.454h-1.201V8.752h1.201V14.454z"/>
	<path fill="#663399" d="M119.317,13.725c-0.537-0.542-0.805-1.257-0.805-2.143s0.275-1.593,0.826-2.122
		c0.549-0.529,1.205-0.793,1.967-0.793c0.76,0,1.373,0.321,1.838,0.964V6.501h1.199v7.952h-1.199v-0.857
		c-0.443,0.629-1.09,0.943-1.941,0.943C120.481,14.54,119.853,14.268,119.317,13.725z M119.714,11.63
		c0,0.546,0.174,0.991,0.525,1.334c0.35,0.343,0.76,0.515,1.232,0.515c0.471,0,0.871-0.173,1.199-0.52
		c0.328-0.346,0.494-0.791,0.494-1.334s-0.166-0.997-0.494-1.361s-0.732-0.546-1.211-0.546s-0.889,0.182-1.232,0.546
		C119.886,10.627,119.714,11.083,119.714,11.63z"/>
	<path fill="#663399" d="M127.298,14.454h-1.201V6.501h1.201V14.454z"/>
	<path fill="#663399" d="M133.706,14.454h-1.094v-0.761c-0.471,0.564-1.104,0.847-1.896,0.847c-0.592,0-1.084-0.168-1.473-0.504
		c-0.391-0.336-0.584-0.784-0.584-1.345c0-0.561,0.207-0.98,0.621-1.259c0.414-0.279,0.975-0.418,1.682-0.418h1.555v-0.214
		c0-0.757-0.422-1.136-1.264-1.136c-0.529,0-1.08,0.193-1.65,0.579l-0.537-0.75c0.693-0.55,1.479-0.825,2.357-0.825
		c0.672,0,1.221,0.17,1.646,0.509c0.424,0.339,0.637,0.874,0.637,1.603V14.454z M132.507,12.332v-0.482h-1.352
		c-0.863,0-1.297,0.272-1.297,0.815c0,0.278,0.107,0.491,0.322,0.638s0.512,0.219,0.895,0.219s0.717-0.107,1.002-0.321
		S132.507,12.696,132.507,12.332z"/>
	<path fill="#663399" d="M136.622,11.367v3.086h-1.201V8.752h1.201v1.04c0.193-0.35,0.459-0.625,0.799-0.825
		c0.338-0.2,0.705-0.3,1.098-0.3c0.643,0,1.162,0.196,1.559,0.589s0.596,0.961,0.596,1.704v3.494h-1.201v-3.129
		c0-1.05-0.436-1.575-1.307-1.575c-0.414,0-0.775,0.137-1.082,0.413C136.774,10.437,136.622,10.838,136.622,11.367z"/>
	<path fill="#663399" d="M142.849,13.725c-0.537-0.542-0.805-1.257-0.805-2.143s0.275-1.593,0.826-2.122
		c0.549-0.529,1.205-0.793,1.967-0.793c0.76,0,1.373,0.321,1.838,0.964V6.501h1.199v7.952h-1.199v-0.857
		c-0.443,0.629-1.09,0.943-1.941,0.943C144.013,14.54,143.384,14.268,142.849,13.725z M143.245,11.63
		c0,0.546,0.174,0.991,0.525,1.334c0.35,0.343,0.76,0.515,1.232,0.515c0.471,0,0.871-0.173,1.199-0.52
		c0.328-0.346,0.494-0.791,0.494-1.334s-0.166-0.997-0.494-1.361s-0.732-0.546-1.211-0.546s-0.889,0.182-1.232,0.546
		C143.417,10.627,143.245,11.083,143.245,11.63z"/>
	<path fill="#663399" d="M153.714,12.75c0,0.543-0.197,0.977-0.59,1.302s-0.896,0.488-1.512,0.488c-0.414,0-0.844-0.075-1.291-0.225
		c-0.447-0.15-0.842-0.361-1.184-0.632l0.578-0.933c0.664,0.5,1.309,0.75,1.93,0.75c0.271,0,0.486-0.062,0.643-0.188
		c0.156-0.125,0.236-0.284,0.236-0.477c0-0.286-0.379-0.543-1.137-0.772c-0.057-0.021-0.1-0.036-0.129-0.042
		c-1.186-0.322-1.779-0.857-1.779-1.608c0-0.528,0.207-0.952,0.617-1.27c0.41-0.317,0.945-0.477,1.602-0.477
		c0.658,0,1.279,0.193,1.865,0.579l-0.449,0.89c-0.465-0.307-0.969-0.461-1.512-0.461c-0.285,0-0.518,0.052-0.697,0.155
		c-0.178,0.104-0.268,0.259-0.268,0.466c0,0.186,0.094,0.321,0.279,0.407c0.129,0.064,0.309,0.125,0.541,0.182
		s0.438,0.114,0.615,0.171c0.18,0.058,0.352,0.122,0.52,0.193c0.168,0.072,0.35,0.172,0.543,0.3
		C153.521,11.807,153.714,12.207,153.714,12.75z"/>
	<path fill="#663399" d="M84.294,17.68v1.469h-3.471v1.617h3.301v1.469h-3.301v2.938h-1.672V17.68H84.294z"/>
	<path fill="#663399" d="M88.483,20.82c-0.479,0-0.836,0.17-1.072,0.508c-0.236,0.34-0.354,0.789-0.354,1.346v2.498H85.45v-5.766
		h1.607v0.76c0.207-0.236,0.467-0.436,0.777-0.6s0.627-0.25,0.947-0.258l0.012,1.512H88.483z"/>
	<path fill="#663399" d="M94.854,24.336c-0.65,0.613-1.414,0.922-2.289,0.922s-1.598-0.271-2.17-0.811s-0.857-1.262-0.857-2.17
		c0-0.906,0.291-1.629,0.873-2.164c0.584-0.537,1.271-0.805,2.064-0.805s1.465,0.24,2.02,0.719c0.553,0.479,0.83,1.135,0.83,1.971
		v0.857h-4.201c0.051,0.314,0.215,0.572,0.494,0.771c0.277,0.201,0.592,0.301,0.943,0.301c0.564,0,1.027-0.189,1.393-0.568
		L94.854,24.336z M93.312,20.916c-0.223-0.186-0.492-0.277-0.811-0.277c-0.316,0-0.607,0.096-0.873,0.289
		c-0.264,0.191-0.418,0.453-0.461,0.781h2.529C93.661,21.367,93.532,21.102,93.312,20.916z"/>
	<path fill="#663399" d="M101.571,24.336c-0.65,0.613-1.414,0.922-2.289,0.922s-1.598-0.271-2.17-0.811s-0.857-1.262-0.857-2.17
		c0-0.906,0.291-1.629,0.873-2.164c0.584-0.537,1.271-0.805,2.064-0.805s1.465,0.24,2.02,0.719c0.553,0.479,0.83,1.135,0.83,1.971
		v0.857h-4.201c0.051,0.314,0.215,0.572,0.494,0.771c0.277,0.201,0.592,0.301,0.943,0.301c0.564,0,1.027-0.189,1.393-0.568
		L101.571,24.336z M100.028,20.916c-0.223-0.186-0.492-0.277-0.811-0.277c-0.316,0-0.607,0.096-0.873,0.289
		c-0.264,0.191-0.418,0.453-0.461,0.781h2.529C100.378,21.367,100.249,21.102,100.028,20.916z"/>
	<path fill="#663399" d="M104.923,25.172h-1.607v-7.953h1.607V25.172z"/>
	<path fill="#663399" d="M111.421,25.172h-1.512v-0.697c-0.414,0.521-0.926,0.783-1.537,0.783s-1.123-0.178-1.539-0.531
		c-0.414-0.354-0.621-0.826-0.621-1.414c0-0.59,0.215-1.031,0.643-1.324c0.43-0.293,1.016-0.439,1.758-0.439h1.201v-0.031
		c0-0.615-0.326-0.922-0.975-0.922c-0.279,0-0.574,0.055-0.885,0.166c-0.311,0.109-0.574,0.248-0.787,0.412l-0.719-1.039
		c0.758-0.551,1.621-0.826,2.594-0.826c0.699,0,1.271,0.176,1.715,0.525s0.664,0.904,0.664,1.662V25.172z M109.802,22.975v-0.279
		h-1.006c-0.645,0-0.965,0.201-0.965,0.6c0,0.209,0.076,0.367,0.23,0.479c0.152,0.109,0.373,0.166,0.658,0.166
		s0.537-0.088,0.756-0.264C109.694,23.502,109.802,23.268,109.802,22.975z"/>
	<path fill="#663399" d="M114.575,21.955v3.217h-1.607v-5.766h1.607v0.643c0.486-0.494,1.031-0.74,1.639-0.74
		s1.117,0.215,1.527,0.643c0.412,0.43,0.617,1.002,0.617,1.715v3.506h-1.607v-3.258c0-0.887-0.326-1.33-0.977-1.33
		c-0.32,0-0.602,0.117-0.84,0.348C114.694,21.164,114.575,21.506,114.575,21.955z"/>
	<path fill="#663399" d="M122.647,23.832c0.535,0,1.018-0.268,1.445-0.805l0.955,1.072c-0.744,0.771-1.547,1.158-2.412,1.158
		s-1.596-0.273-2.191-0.82c-0.598-0.547-0.895-1.262-0.895-2.145c0-0.881,0.301-1.6,0.904-2.154c0.604-0.553,1.32-0.83,2.15-0.83
		c0.414,0,0.834,0.086,1.258,0.258c0.426,0.172,0.799,0.426,1.121,0.76l-0.836,1.094c-0.186-0.221-0.414-0.393-0.682-0.514
		s-0.533-0.184-0.799-0.184c-0.42,0-0.783,0.139-1.086,0.414c-0.305,0.275-0.457,0.656-0.457,1.146c0,0.488,0.152,0.869,0.457,1.141
		C121.884,23.695,122.239,23.832,122.647,23.832z"/>
	<path fill="#663399" d="M131.052,24.336c-0.65,0.613-1.414,0.922-2.289,0.922s-1.598-0.271-2.17-0.811s-0.857-1.262-0.857-2.17
		c0-0.906,0.291-1.629,0.873-2.164c0.584-0.537,1.271-0.805,2.064-0.805s1.465,0.24,2.02,0.719c0.553,0.479,0.83,1.135,0.83,1.971
		v0.857h-4.201c0.051,0.314,0.215,0.572,0.494,0.771c0.277,0.201,0.592,0.301,0.943,0.301c0.564,0,1.027-0.189,1.393-0.568
		L131.052,24.336z M129.509,20.916c-0.223-0.186-0.492-0.277-0.811-0.277c-0.316,0-0.607,0.096-0.873,0.289
		c-0.264,0.191-0.418,0.453-0.461,0.781h2.529C129.858,21.367,129.729,21.102,129.509,20.916z"/>
	<path fill="#663399" d="M135.819,20.82c-0.479,0-0.836,0.17-1.072,0.508c-0.236,0.34-0.354,0.789-0.354,1.346v2.498h-1.607v-5.766
		h1.607v0.76c0.207-0.236,0.467-0.436,0.777-0.6s0.627-0.25,0.947-0.258l0.012,1.512H135.819z"/>
	<path fill="#663399" d="M141.546,23.377c0,0.566-0.209,1.023-0.627,1.365c-0.418,0.344-0.947,0.516-1.592,0.516
		c-0.428,0-0.875-0.078-1.34-0.23c-0.463-0.154-0.881-0.381-1.254-0.682l0.709-1.008c0.6,0.465,1.238,0.697,1.918,0.697
		c0.207,0,0.371-0.041,0.492-0.123s0.182-0.191,0.182-0.326c0-0.137-0.084-0.262-0.252-0.377c-0.166-0.113-0.41-0.221-0.729-0.32
		c-0.316-0.1-0.561-0.186-0.729-0.258c-0.168-0.07-0.359-0.174-0.572-0.311c-0.436-0.271-0.654-0.674-0.654-1.205
		c0-0.533,0.215-0.967,0.643-1.303c0.43-0.336,0.982-0.504,1.662-0.504c0.678,0,1.357,0.229,2.035,0.686l-0.6,1.072
		c-0.5-0.344-0.998-0.514-1.494-0.514c-0.498,0-0.746,0.135-0.746,0.406c0,0.15,0.078,0.268,0.236,0.354
		c0.156,0.086,0.418,0.186,0.781,0.301c0.365,0.113,0.625,0.201,0.777,0.262c0.154,0.061,0.338,0.156,0.553,0.285
		C141.347,22.402,141.546,22.809,141.546,23.377z"/>
</g>
<g>
	<path fill="none" stroke="#663399" stroke-width="0.5" stroke-miterlimit="10" d="M18.459,0.947v4.76H6.542v4.932H17.26v4.555
		H6.542v4.965h12.294v4.727H1.199V0.947H18.459z"/>
	<path fill="none" stroke="#663399" stroke-width="0.5" stroke-miterlimit="10" d="M45.033,9.816l-6.472,13.083h-3.185L28.938,9.816
		v15.069h-5.342V0.947h7.226l6.164,13.15l6.198-13.15h7.191v23.938h-5.342V9.816z"/>
	<g>
		<path fill="none" stroke="#663399" stroke-width="0.5" stroke-miterlimit="10" d="M71.711,0.93v4.698H60.6v5.178h10.562v4.699
			H60.6v9.397h-5.35V0.93H71.711z"/>
	</g>
</g>
<g opacity="0.7">
	<polygon fill="none" stroke="#663399" stroke-width="0.35" stroke-linejoin="round" stroke-miterlimit="10" points="1.2,0.948
		6.645,5.851 18.52,5.851 	"/>
	<polyline fill="none" stroke="#663399" stroke-width="0.35" stroke-linejoin="round" stroke-miterlimit="10" points="
		17.042,10.643 6.645,15.31 17.228,15.143 6.645,10.643 1.394,1.292 1.2,0.948 1.2,1.123 1.199,24.885 6.645,20.143 18.835,24.885
		"/>
	<polyline fill="none" stroke="#663399" stroke-width="0.35" stroke-miterlimit="10" points="18.52,0.948 6.645,5.851 1.199,24.885
			"/>
	<polyline fill="none" stroke="#663399" stroke-width="0.35" stroke-miterlimit="10" points="6.645,10.643 1.199,24.885
		18.835,20.373 	"/>
	<line fill="none" stroke="#663399" stroke-width="0.35" stroke-miterlimit="10" x1="1.2" y1="0.948" x2="6.542" y2="20.158"/>
	<polyline fill="none" stroke="#663399" stroke-width="0.35" stroke-miterlimit="10" points="1.292,1.123 6.645,15.31 1.292,24.805
			"/>
	<polyline fill="none" stroke="#663399" stroke-width="0.35" stroke-linejoin="round" stroke-miterlimit="10" points="
		35.406,22.898 36.985,14.497 38.395,22.936 43.228,0.948 45.27,9.185 50.208,1.123 45.042,24.885 	"/>
	<polyline fill="none" stroke="#663399" stroke-width="0.35" stroke-linejoin="round" stroke-miterlimit="10" points="
		28.792,24.885 23.729,0.948 28.792,9.185 30.895,0.948 35.478,23.248 	"/>
	<line fill="none" stroke="#663399" stroke-width="0.35" stroke-miterlimit="10" x1="23.729" y1="24.885" x2="28.792" y2="9.185"/>
	<line fill="none" stroke="#663399" stroke-width="0.35" stroke-miterlimit="10" x1="45.27" y1="9.185" x2="50.375" y2="24.885"/>
	<polyline fill="none" stroke="#663399" stroke-width="0.35" stroke-miterlimit="10" points="23.729,0.948 36.954,14.664
		50.208,1.123 	"/>
	<g>
		<polygon fill="none" stroke="#663399" stroke-width="0.35" stroke-linejoin="round" stroke-miterlimit="10" points="55.25,0.948
			60.625,5.573 71.71,5.573 		"/>
		<polyline fill="none" stroke="#663399" stroke-width="0.35" stroke-miterlimit="10" points="71.71,0.948 60.625,5.573
			55.25,24.805 60.625,10.906 71.065,15.487 		"/>
		<polyline fill="none" stroke="#663399" stroke-width="0.35" stroke-miterlimit="10" points="71.065,10.906 60.625,15.487
			55.25,24.805 60.5,24.914 55.25,0.948 		"/>
	</g>
</g>
<path fill="#F07C45" stroke="#FFFFFF" stroke-width="0.25" stroke-miterlimit="10" d="M6.645,20.143"/>
<g>
	<circle fill="#663399" cx="6.645" cy="5.851" r="0.646"/>
	<circle fill="#663399" cx="6.645" cy="10.642" r="0.646"/>
	<circle fill="#663399" cx="17.228" cy="10.642" r="0.646"/>
	<circle fill="#663399" cx="17.228" cy="15.142" r="0.646"/>
	<circle fill="#663399" cx="6.645" cy="15.31" r="0.646"/>
	<circle fill="#663399" cx="6.645" cy="20.143" r="0.646"/>
	<circle fill="#663399" cx="18.835" cy="20.143" r="0.646"/>
	<circle fill="#663399" cx="1.199" cy="0.947" r="0.646"/>
	<circle fill="#663399" cx="18.52" cy="0.947" r="0.646"/>
	<circle fill="#663399" cx="18.52" cy="5.851" r="0.646"/>
	<circle fill="#663399" cx="23.729" cy="0.947" r="0.646"/>
	<circle fill="#663399" cx="30.895" cy="0.947" r="0.646"/>
	<circle fill="#663399" cx="43.228" cy="0.947" r="0.646"/>
	<circle fill="#663399" cx="28.792" cy="9.185" r="0.646"/>
	<circle fill="#663399" cx="45.27" cy="9.185" r="0.646"/>
	<circle fill="#663399" cx="36.985" cy="14.497" r="0.646"/>
	<circle fill="#663399" cx="50.375" cy="0.947" r="0.646"/>
	<circle fill="#663399" cx="55.25" cy="0.947" r="0.646"/>
	<circle fill="#663399" cx="60.625" cy="15.486" r="0.646"/>
	<circle fill="#663399" cx="71.065" cy="15.486" r="0.646"/>
	<circle fill="#663399" cx="60.625" cy="10.906" r="0.646"/>
	<circle fill="#663399" cx="60.625" cy="5.572" r="0.646"/>
	<circle fill="#663399" cx="71.711" cy="5.572" r="0.646"/>
	<circle fill="#663399" cx="71.711" cy="0.947" r="0.646"/>
	<circle fill="#663399" cx="71.065" cy="10.906" r="0.646"/>
</g>
<g opacity="0.3">
	<line fill="#F07C45" stroke="#663399" stroke-width="0.15" stroke-miterlimit="10" x1="31.042" y1="0.947" x2="43.01" y2="0.947"/>
	<line fill="none" stroke="#663399" stroke-width="0.15" stroke-miterlimit="10" x1="17.228" y1="10.553" x2="23.595" y2="1.123"/>
	<polyline fill="none" stroke="#663399" stroke-width="0.15" stroke-miterlimit="10" points="19,24.885 23.595,0.947 18.52,5.851
		23.595,25.123 18.835,20.143 6.875,15.31 6.645,20.143 17.333,15.31 23.729,1.123 	"/>
	<polyline fill="none" stroke="#663399" stroke-width="0.15" stroke-miterlimit="10" points="18.52,5.851 6.645,10.553 6.645,6.007
		17.375,10.553 23.595,25.123 	"/>
	<line fill="none" stroke="#663399" stroke-width="0.15" stroke-miterlimit="10" x1="18.835" y1="20.143" x2="23.494" y2="1.045"/>
	<polyline fill="none" stroke="#663399" stroke-width="0.15" stroke-miterlimit="10" points="23.595,0.948 18.835,0.948
		23.448,24.914 	"/>
	<polyline fill="none" stroke="#663399" stroke-width="0.15" stroke-miterlimit="10" points="54.988,24.898 54.969,24.805
		50.375,0.933 55.135,0.933 50.624,24.914 55.25,24.914 	"/>
	<polyline fill="none" stroke="#663399" stroke-width="0.15" stroke-miterlimit="10" points="35.406,22.936 29.01,24.885
		44.885,24.885 38.395,22.936 	"/>

		<line fill="#F07C45" stroke="#663399" stroke-width="0.15" stroke-miterlimit="10" x1="17.333" y1="15.31" x2="23.494" y2="24.885"/>

		<line fill="#663399" stroke="#663399" stroke-width="0.15" stroke-miterlimit="10" x1="18.785" y1="24.885" x2="23.544" y2="24.885"/>
</g>
<circle fill="#663399" cx="18.818" cy="24.924" r="0.646"/>
<circle fill="#663399" cx="1.182" cy="24.924" r="0.646"/>
<circle fill="#663399" cx="23.712" cy="24.924" r="0.646"/>
<circle fill="#663399" cx="28.775" cy="24.924" r="0.646"/>
<circle fill="#663399" cx="45.025" cy="24.924" r="0.646"/>
<circle fill="#663399" cx="50.358" cy="24.924" r="0.646"/>
<circle fill="#663399" cx="55.099" cy="24.844" r="0.646"/>
<circle fill="#663399" cx="60.608" cy="24.924" r="0.646"/>
</svg>
