<?xml version="1.0" encoding="utf-8"?>
<!-- Generator: Adobe Illustrator 13.0.0, SVG Export Plug-In . SVG Version: 6.00 Build 14948)  -->
<!DOCTYPE svg PUBLIC "-//W3C//DTD SVG 1.1//EN" "http://www.w3.org/Graphics/SVG/1.1/DTD/svg11.dtd">
<svg version="1.1" id="Layer_1" xmlns="http://www.w3.org/2000/svg" xmlns:xlink="http://www.w3.org/1999/xlink" x="0px" y="0px"
	 width="1024px" height="736.364px" viewBox="0 0 1024 736.364" enable-background="new 0 0 1024 736.364" xml:space="preserve">
<image display="none" overflow="visible" enable-background="new    " width="2558" height="1439" xlink:href="44FF36D9.jpeg"  transform="matrix(0.4361 0 0 0.4361 -103.9727 -102.7021)">
</image>
<image display="none" overflow="visible" enable-background="new    " width="2559" height="1441" xlink:href="44FF36DB.jpeg"  transform="matrix(0.4703 0 0 0.4698 -103.6113 219.7979)">
</image>
<g opacity="0.5">
	<polyline fill="none" stroke="#673694" stroke-width="0.5" stroke-linejoin="round" stroke-miterlimit="10" points="708,336.771 
		518.333,370.133 363.334,348.799 351.334,440.467 448.667,443.801 374.334,506.799 223.334,419.467 	"/>
	
		<line fill="none" stroke="#673694" stroke-width="0.75" stroke-linejoin="round" stroke-miterlimit="10" x1="721.668" y1="54.132" x2="708" y2="336.771"/>
	
		<line fill="none" stroke="#673694" stroke-width="0.5" stroke-linejoin="round" stroke-miterlimit="10" x1="553.334" y1="211.466" x2="721.668" y2="54.132"/>
	<path fill="none" stroke="#673694" stroke-width="0.5" stroke-linejoin="round" stroke-miterlimit="10" d="M125.334,104.799"/>
	<polyline fill="none" stroke="#673694" stroke-width="0.5" stroke-linejoin="round" stroke-miterlimit="10" points="
		141.668,196.799 288.001,208.132 191.129,319.31 270.667,366.799 356.667,252.855 479.334,278.799 	"/>
	<line fill="none" stroke="#673694" stroke-width="0.5" stroke-miterlimit="10" x1="518.333" y1="370.133" x2="502" y2="490.467"/>
	<polyline fill="none" stroke="#673694" stroke-width="0.5" stroke-miterlimit="10" points="492.334,621.799 363.334,348.799 
		479.334,278.799 448.667,443.801 363.334,348.799 492.334,621.799 508.667,578.036 721.668,54.133 502,490.467 708,336.771 	"/>
	<polyline fill="none" stroke="#673694" stroke-width="0.75" stroke-miterlimit="10" points="363.334,349.466 360.729,350.875 
		223.334,419.467 	"/>
	
		<line fill="none" stroke="#673694" stroke-width="0.5" stroke-miterlimit="10" x1="288.001" y1="208.133" x2="351.334" y2="440.467"/>
	
		<line fill="none" stroke="#673694" stroke-width="0.75" stroke-miterlimit="10" x1="191.129" y1="319.31" x2="356.667" y2="252.855"/>
	<polyline fill="none" stroke="#673694" stroke-width="0.25" stroke-miterlimit="10" points="448.667,443.801 518.333,370.133 
		351.334,440.467 125.334,104.8 270.667,366.799 	"/>
	
		<line fill="none" stroke="#673694" stroke-width="0.25" stroke-miterlimit="10" x1="479.334" y1="278.799" x2="351.334" y2="440.467"/>
	
		<line fill="none" stroke="#673694" stroke-width="0.75" stroke-miterlimit="10" x1="448.667" y1="443.801" x2="492.334" y2="621.799"/>
	<polyline fill="none" stroke="#673694" stroke-width="0.5" stroke-miterlimit="10" points="449.39,446.745 448.667,443.801 
		502,490.467 	"/>
	
		<line fill="none" stroke="#673694" stroke-width="0.5" stroke-miterlimit="10" x1="223.334" y1="419.467" x2="270.668" y2="366.633"/>
	<polyline fill="none" stroke="#673694" stroke-width="0.25" stroke-miterlimit="10" points="363.334,348.799 356.667,252.855 
		719.5,55.298 	"/>
	
		<line fill="none" stroke="#673694" stroke-width="0.25" stroke-miterlimit="10" x1="270.667" y1="366.799" x2="363.334" y2="348.799"/>
	<polyline fill="none" stroke="#673694" stroke-width="0.75" stroke-miterlimit="10" points="721.668,54.133 288.001,208.133 
		553.334,211.466 518.333,370.133 817.667,252.856 	"/>
	<polyline fill="none" stroke="#673694" stroke-width="0.5" stroke-miterlimit="10" points="817.667,252.856 479.334,278.799 
		288.001,208.133 270.667,366.799 125.334,104.799 	"/>
	<polyline fill="none" stroke="#673694" stroke-width="0.5" stroke-miterlimit="10" points="192.054,319.028 223.334,419.467 
		351.334,440.467 518.333,370.133 508.667,578.036 	"/>
	<path fill="#673694" d="M290.021,208.133c0,1.116-0.905,2.021-2.021,2.021s-2.02-0.905-2.02-2.021c0-1.116,0.904-2.021,2.02-2.021
		C289.117,206.112,290.021,207.017,290.021,208.133"/>
	<path fill="#673694" d="M358.688,253.383c0,1.116-0.904,2.021-2.021,2.021s-2.02-0.905-2.02-2.021c0-1.116,0.903-2.021,2.02-2.021
		S358.688,252.267,358.688,253.383"/>
	<path fill="#673694" d="M194.021,318.643c0,1.116-0.905,2.021-2.021,2.021s-2.02-0.905-2.02-2.021c0-1.116,0.904-2.021,2.02-2.021
		S194.021,317.526,194.021,318.643"/>
	<path fill="#673694" d="M272.688,366.633c0,1.115-0.905,2.021-2.021,2.021s-2.02-0.906-2.02-2.021c0-1.116,0.904-2.021,2.02-2.021
		C271.784,364.611,272.688,365.517,272.688,366.633"/>
	<path fill="#673694" d="M143.688,196.799c0,1.116-0.905,2.021-2.021,2.021s-2.02-0.905-2.02-2.021c0-1.116,0.904-2.021,2.02-2.021
		C142.784,194.778,143.688,195.683,143.688,196.799"/>
	<path fill="#673694" d="M128.355,105.799c0,1.116-0.905,2.021-2.021,2.021s-2.02-0.905-2.02-2.021c0-1.116,0.904-2.021,2.02-2.021
		S128.355,104.683,128.355,105.799"/>
	<path fill="#673694" d="M554.855,211.466c0,1.116-0.905,2.021-2.021,2.021s-2.021-0.905-2.021-2.021
		c0-1.116,0.904-2.021,2.021-2.021C553.95,209.445,554.855,210.35,554.855,211.466"/>
	<path fill="#673694" d="M723.021,55.299c0,1.116-0.904,2.021-2.021,2.021c-1.115,0-2.02-0.905-2.02-2.021
		c0-1.116,0.903-2.021,2.02-2.021C722.117,53.278,723.021,54.183,723.021,55.299"/>
	<path fill="#673694" d="M819.688,252.855c0,1.116-0.903,2.021-2.021,2.021c-1.115,0-2.021-0.905-2.021-2.021
		c0-1.116,0.904-2.021,2.021-2.021S819.688,251.739,819.688,252.855"/>
	<path fill="#673694" d="M709.771,336.82c0,1.115-0.904,2.021-2.021,2.021c-1.115,0-2.02-0.906-2.02-2.021
		c0-1.116,0.903-2.021,2.02-2.021C708.867,334.799,709.771,335.704,709.771,336.82"/>
	<path fill="#673694" d="M520.354,370.133c0,1.115-0.903,2.021-2.021,2.021c-1.115,0-2.021-0.905-2.021-2.021
		c0-1.116,0.904-2.021,2.021-2.021C519.449,368.111,520.354,369.017,520.354,370.133"/>
	<path fill="#673694" d="M481.354,278.799c0,1.116-0.904,2.021-2.021,2.021s-2.02-0.905-2.02-2.021c0-1.116,0.903-2.021,2.02-2.021
		S481.354,277.683,481.354,278.799"/>
	<path fill="#673694" d="M365.354,348.799c0,1.115-0.904,2.021-2.021,2.021s-2.02-0.905-2.02-2.021c0-1.116,0.903-2.021,2.02-2.021
		S365.354,347.683,365.354,348.799"/>
	<path fill="#673694" d="M225.354,419.467c0,1.115-0.905,2.021-2.021,2.021s-2.02-0.906-2.02-2.021c0-1.117,0.904-2.021,2.02-2.021
		S225.354,418.35,225.354,419.467"/>
	<path fill="#673694" d="M353.354,440.467c0,1.115-0.904,2.021-2.021,2.021s-2.02-0.906-2.02-2.021c0-1.117,0.903-2.021,2.02-2.021
		S353.354,439.35,353.354,440.467"/>
	<path fill="#673694" d="M376.521,506.799c0,1.115-0.905,2.021-2.021,2.021s-2.02-0.906-2.02-2.021c0-1.117,0.903-2.021,2.02-2.021
		C375.617,504.778,376.521,505.682,376.521,506.799"/>
	<path fill="#673694" d="M450.688,443.801c0,1.115-0.904,2.021-2.021,2.021s-2.02-0.906-2.02-2.021c0-1.117,0.903-2.021,2.02-2.021
		S450.688,442.684,450.688,443.801"/>
	<path fill="#673694" d="M504.021,490.467c0,1.115-0.905,2.021-2.021,2.021s-2.02-0.906-2.02-2.021c0-1.117,0.903-2.021,2.02-2.021
		C503.115,488.446,504.021,489.35,504.021,490.467"/>
	<path fill="#673694" d="M510.886,577.167c0,1.115-0.904,2.021-2.021,2.021c-1.117,0-2.021-0.906-2.021-2.021
		c0-1.117,0.903-2.021,2.021-2.021C509.98,575.145,510.886,576.049,510.886,577.167"/>
	<path fill="#673694" d="M494.354,621.799c0,1.115-0.904,2.021-2.021,2.021s-2.02-0.906-2.02-2.021c0-1.117,0.903-2.021,2.02-2.021
		S494.354,620.682,494.354,621.799"/>
	<polyline fill="none" stroke="#673694" stroke-width="0.75" stroke-miterlimit="10" points="437,575.147 508.865,577.167 
		502,490.467 492.334,619.778 	"/>
	<path fill="#673694" d="M439.021,575.147c0,1.113-0.905,2.02-2.021,2.02s-2.02-0.904-2.02-2.02c0-1.117,0.903-2.021,2.02-2.021
		S439.021,574.03,439.021,575.147"/>
	<g>
		
			<line fill="none" stroke="#673694" stroke-width="0.75" stroke-miterlimit="10" x1="721.668" y1="54.133" x2="518.333" y2="370.133"/>
	</g>
	<polyline fill="none" stroke="#673694" stroke-width="0.5" stroke-miterlimit="10" points="707.751,336.82 817.667,252.855 
		720.997,55.465 125.334,104.799 141.668,196.8 	"/>
	<path fill="#673694" d="M444.201,712.819c0,1.115-0.905,2.021-2.021,2.021c-1.115,0-2.02-0.906-2.02-2.021s0.904-2.021,2.02-2.021
		C443.296,710.797,444.201,711.704,444.201,712.819"/>
	<path fill="#673694" d="M516.041,676.297c0,1.115-0.904,2.021-2.021,2.021c-1.115,0-2.02-0.904-2.02-2.021
		c0-1.115,0.904-2.02,2.02-2.02C515.137,674.276,516.041,675.182,516.041,676.297"/>
	<path fill="#673694" d="M350,700.819c0,1.115-0.905,2.021-2.021,2.021c-1.115,0-2.02-0.906-2.02-2.021s0.904-2.021,2.02-2.021
		C349.095,698.797,350,699.704,350,700.819"/>
	<path fill="#673694" d="M280.521,540.799c0,1.115-0.905,2.021-2.021,2.021s-2.02-0.906-2.02-2.021c0-1.117,0.904-2.021,2.02-2.021
		S280.521,539.682,280.521,540.799"/>
	<path fill="#673694" d="M702.021,401.278c0,1.113-0.905,2.02-2.021,2.02s-2.02-0.904-2.02-2.02c0-1.117,0.902-2.021,2.02-2.021
		S702.021,400.161,702.021,401.278"/>
	<path fill="#673694" d="M587.021,481.428c0,1.115-0.905,2.021-2.021,2.021s-2.02-0.904-2.02-2.021c0-1.115,0.902-2.02,2.02-2.02
		S587.021,480.313,587.021,481.428"/>
	<path fill="#673694" d="M288.001,171.128c0,1.115-0.905,2.021-2.021,2.021c-1.116,0-2.02-0.905-2.02-2.021
		c0-1.116,0.903-2.021,2.02-2.021C287.097,169.107,288.001,170.012,288.001,171.128"/>
	<path fill="#673694" d="M392.5,167.086c0-1.116-0.905-2.021-2.021-2.021c-1.115,0-2.02,0.905-2.02,2.021
		c0,1.115,0.903,2.021,2.02,2.021C391.596,169.107,392.5,168.201,392.5,167.086"/>
	<polygon fill="none" stroke="#673694" stroke-width="0.5" stroke-miterlimit="10" points="278.5,540.797 347.979,700.819 
		492.334,621.799 442.181,712.819 	"/>
	<polyline fill="none" stroke="#673694" stroke-width="0.75" stroke-miterlimit="10" points="374.501,506.799 347.979,700.819 
		442.181,712.819 	"/>
	<line fill="none" stroke="#673694" stroke-width="0.25" stroke-miterlimit="10" x1="223.334" y1="419.467" x2="437" y2="575.147"/>
	
		<line fill="none" stroke="#673694" stroke-width="0.75" stroke-miterlimit="10" x1="278.5" y1="540.797" x2="223.334" y2="419.467"/>
	<polyline fill="none" stroke="#673694" stroke-width="0.25" stroke-miterlimit="10" points="508.865,577.167 514.021,676.297 
		437,575.147 351.334,440.467 374.501,506.799 437,575.147 492.334,621.799 514.021,676.297 442.181,712.819 374.501,506.799 
		278.5,540.797 	"/>
	<polyline fill="none" stroke="#673694" stroke-width="0.5" stroke-miterlimit="10" points="351.334,440.467 278.5,540.797 
		448.667,443.801 437,575.147 502,490.467 	"/>
	<polyline fill="none" stroke="#673694" stroke-width="0.25" stroke-miterlimit="10" points="285.98,171.127 191.129,319.31 
		141.668,196.8 285.98,171.127 	"/>
	<polyline fill="none" stroke="#673694" stroke-width="0.75" stroke-miterlimit="10" points="278.5,540.797 270.667,366.799 
		351.334,440.467 	"/>
	<line fill="none" stroke="#673694" stroke-width="0.75" stroke-miterlimit="10" x1="437" y1="575.147" x2="347.979" y2="700.819"/>
	<polyline fill="none" stroke="#673694" stroke-width="0.75" stroke-miterlimit="10" points="514.021,676.297 585,481.428 
		700.001,401.276 708,336.771 585,481.428 	"/>
	<polyline fill="none" stroke="#673694" stroke-width="0.25" stroke-miterlimit="10" points="518.333,370.133 585,481.428 
		502,490.467 	"/>
	<polygon fill="none" stroke="#673694" stroke-width="0.75" stroke-miterlimit="10" points="518.333,370.476 700.001,401.276 
		479.334,278.799 	"/>
	<polyline fill="none" stroke="#673694" stroke-width="0.25" stroke-miterlimit="10" points="356.667,252.856 553.334,211.466 
		700.001,401.276 817.667,252.856 553.334,211.466 390.479,167.085 356.667,252.856 288.001,208.132 	"/>
	<line fill="none" stroke="#673694" stroke-width="0.25" stroke-miterlimit="10" x1="585" y1="481.428" x2="492.334" y2="619.778"/>
	
		<line fill="none" stroke="#673694" stroke-width="0.25" stroke-miterlimit="10" x1="514.021" y1="676.297" x2="700.001" y2="401.276"/>
	
		<line fill="none" stroke="#673694" stroke-width="0.5" stroke-miterlimit="10" x1="285.98" y1="171.127" x2="127.369" y2="105.799"/>
	<polyline fill="none" stroke="#673694" stroke-width="0.75" stroke-miterlimit="10" points="285.98,171.127 479.334,278.799 
		553.334,211.466 	"/>
	<polyline fill="none" stroke="#673694" stroke-width="0.25" stroke-miterlimit="10" points="479.334,278.799 390.479,167.085 
		125.334,104.8 390.479,167.085 285.98,171.127 288.001,208.132 125.646,105.799 	"/>
	<polyline fill="none" stroke="#673694" stroke-width="0.25" stroke-miterlimit="10" points="720.997,55.465 538.084,17.277 
		125.334,104.8 	"/>
	<polyline fill="none" stroke="#673694" stroke-width="0.75" stroke-linejoin="round" stroke-miterlimit="10" points="
		285.98,171.127 538.084,17.277 390.479,167.085 	"/>
	<path fill="#673694" d="M540.104,17.277c0-1.116-0.904-2.021-2.021-2.021s-2.021,0.905-2.021,2.021
		c0,1.115,0.903,2.021,2.021,2.021S540.104,18.393,540.104,17.277"/>
	<g id="Layer_2">
		
			<line fill="none" stroke="#673694" stroke-width="0.5" stroke-linejoin="round" stroke-miterlimit="10" x1="538.084" y1="17.277" x2="553.334" y2="211.466"/>
	</g>
	<g>
		<rect x="691.168" y="48.139" fill="#FFFFFF" width="49" height="16.079"/>
		<g opacity="0.8">
			<text transform="matrix(1 0 0 1 695.6484 59.1392)" fill="#673694" font-family="'Montserrat-Regular'" font-size="10">Cleethorpes</text>
		</g>
		<rect x="253.599" y="532.758" fill="#FFFFFF" width="45.763" height="16.078"/>
		<g opacity="0.8">
			<text transform="matrix(1 0 0 1 257.5986 543.2759)" fill="#673694" font-family="'Montserrat-Regular'" font-size="10">Hinckley</text>
		</g>
		<rect x="328.077" y="692.78" fill="#FFFFFF" width="50.592" height="16.078"/>
		<g opacity="0.8">
			<text transform="matrix(1 0 0 1 330.8335 703.9429)" fill="#673694" font-family="'Montserrat-Regular'" font-size="10">Daventry</text>
		</g>
		<rect x="493.16" y="670.28" fill="#FFFFFF" width="45.763" height="16.078"/>
		<g opacity="0.8">
			<text transform="matrix(1 0 0 1 474.48 681.1089)" fill="#673694" font-family="'Montserrat-Regular'" font-size="10">Wellingborough</text>
		</g>
		<rect x="395.002" y="703.467" fill="#FFFFFF" width="79.312" height="18.703"/>
		<g>
			<text transform="matrix(1 0 0 1 399.334 717.1411)" fill="#673694" font-family="'Montserrat-Bold'" font-size="12">Northampton</text>
		</g>
		<rect x="119.5" y="188.761" fill="#FFFFFF" width="49" height="16.079"/>
		<g opacity="0.8">
			<text transform="matrix(1 0 0 1 126.3335 199.5884)" fill="#673694" font-family="'Montserrat-Regular'" font-size="10">Buxton</text>
		</g>
		<rect x="455.167" y="272.3" fill="#FFFFFF" width="49" height="16.078"/>
		<g opacity="0.8">
			<text transform="matrix(1 0 0 1 460 283.1274)" fill="#673694" font-family="'Montserrat-Regular'" font-size="10">Newark</text>
		</g>
		<rect x="487.5" y="569.997" fill="#FFFFFF" width="49" height="16.078"/>
		<g opacity="0.8">
			<text transform="matrix(1 0 0 1 493.3335 580.8237)" fill="#673694" font-family="'Montserrat-Regular'" font-size="10">Corby</text>
		</g>
		<rect x="685.5" y="328.781" fill="#FFFFFF" width="44" height="16.078"/>
		<g opacity="0.8">
			<text transform="matrix(1 0 0 1 690.084 339.6089)" fill="#673694" font-family="'Montserrat-Regular'" font-size="10">Boston</text>
		</g>
		<rect x="331" y="244.816" fill="#FFFFFF" width="61.5" height="16.078"/>
		<g opacity="0.8">
			<text transform="matrix(1 0 0 1 337.8335 255.644)" fill="#673694" font-family="'Montserrat-Regular'" font-size="10">Mansfield</text>
		</g>
		<rect x="104" y="98.462" fill="#FFFFFF" width="49" height="16.078"/>
		<text transform="matrix(1 0 0 1 108 109.4634)" fill="#673694" font-family="'Montserrat-Regular'" font-size="10">Gl</text>
		<text transform="matrix(1 0 0 1 118.3101 109.4634)" fill="#673694" font-family="'Montserrat-Regular'" font-size="10">o</text>
		<text transform="matrix(1 0 0 1 124.79 109.4634)" fill="#673694" font-family="'Montserrat-Regular'" font-size="10">ssop</text>
		<rect x="479.667" y="481.428" fill="#FFFFFF" width="45.763" height="16.078"/>
		<g opacity="0.8">
			<text transform="matrix(1 0 0 1 480.3281 492.9731)" fill="#673694" font-family="'Montserrat-Regular'" font-size="10">Oakham</text>
		</g>
		<rect x="789" y="244.816" fill="#FFFFFF" width="49" height="16.078"/>
		<g opacity="0.8">
			<text transform="matrix(1 0 0 1 794.6436 255.644)" fill="#673694" font-family="'Montserrat-Regular'" font-size="10">Skegness</text>
		</g>
		<rect x="170.965" y="310.271" fill="#FFFFFF" width="49" height="16.078"/>
		<g opacity="0.8">
			<text transform="matrix(1 0 0 1 162.293 321.7524)" fill="#673694" font-family="'Montserrat-Regular'" font-size="10">Ashbourne</text>
		</g>
		<rect x="250.5" y="198.82" fill="#FFFFFF" width="83.333" height="17.978"/>
		<g>
			<text transform="matrix(1 0 0 1 255.1519 211.6333)" fill="#673694" font-family="'Montserrat-Bold'" font-size="12">Chesterfield</text>
		</g>
		<rect x="490" y="362.094" fill="#FFFFFF" width="59" height="16.079"/>
		<g opacity="0.8">
			<text transform="matrix(1 0 0 1 495 373.1353)" fill="#673694" font-family="'Montserrat-Regular'" font-size="10">Grantham</text>
		</g>
		<rect x="325.102" y="340.114" fill="#FFFFFF" width="84.797" height="18.703"/>
		<g>
			<text transform="matrix(1 0 0 1 330.2539 353.6538)" fill="#673694" font-family="'Montserrat-Bold'" font-size="12">Nottingham</text>
		</g>
		<rect x="356.667" y="497.448" fill="#FFFFFF" width="58.667" height="18.703"/>
		<g>
			<text transform="matrix(1 0 0 1 359.667 510.4741)" fill="#673694" font-family="'Montserrat-Bold'" font-size="12">Leicester</text>
		</g>
		<rect x="528.666" y="202.281" fill="#FFFFFF" width="56.168" height="18.704"/>
		<g>
			<text transform="matrix(1 0 0 1 532.6436 215.2983)" fill="#673694" font-family="'Montserrat-Bold'" font-size="12">Lincoln</text>
		</g>
		<rect x="250.5" y="356.818" fill="#FFFFFF" width="42.834" height="18.704"/>
		<g>
			<text transform="matrix(1 0 0 1 253 369.8452)" fill="#673694" font-family="'Montserrat-Bold'" font-size="12">Derby</text>
		</g>
		<rect x="462.833" y="615" fill="#FFFFFF" width="61" height="16.078"/>
		<g opacity="0.8">
			<text transform="matrix(1 0 0 1 467.8335 626.0425)" fill="#673694" font-family="'Montserrat-Regular'" font-size="10">Kettering</text>
		</g>
		<rect x="313.667" y="431.116" fill="#FFFFFF" width="95.667" height="18.703"/>
		<g>
			<text transform="matrix(1 0 0 1 316.6675 444.1421)" fill="#673694" font-family="'Montserrat-Bold'" font-size="12">Loughborough</text>
		</g>
		<rect x="420.5" y="436.102" fill="#FFFFFF" width="54.833" height="28.695"/>
		<g opacity="0.8">
			<text transform="matrix(1 0 0 1 429.3428 447.9302)" fill="#673694" font-family="'Montserrat-Regular'" font-size="10">Melton </text>
			<text transform="matrix(1 0 0 1 424.7827 459.9302)" fill="#673694" font-family="'Montserrat-Regular'" font-size="10">Mowbray</text>
		</g>
		<rect x="198.167" y="409.583" fill="#FFFFFF" width="60.985" height="28.695"/>
		<g opacity="0.8">
			<text transform="matrix(1 0 0 1 207.6392 421.4097)" fill="#673694" font-family="'Montserrat-Regular'" font-size="10">Burton </text>
			<text transform="matrix(1 0 0 1 197.8594 433.4097)" fill="#673694" font-family="'Montserrat-Regular'" font-size="10">Upon Trent</text>
		</g>
		<rect x="409.583" y="560.797" fill="#FFFFFF" width="61.154" height="28.695"/>
		<g opacity="0.8">
			<text transform="matrix(1 0 0 1 418.4609 572.6255)" fill="#673694" font-family="'Montserrat-Regular'" font-size="10">Market </text>
			<text transform="matrix(1 0 0 1 407.3511 584.6255)" fill="#673694" font-family="'Montserrat-Regular'" font-size="10">Harborough</text>
		</g>
		<rect x="367.5" y="157.025" fill="#FFFFFF" width="50.833" height="16.078"/>
		<g opacity="0.8">
			<text transform="matrix(1 0 0 1 370.5 169.1069)" fill="#673694" font-family="'Montserrat-Regular'" font-size="10">Worksop</text>
		</g>
		<rect x="261" y="161.046" fill="#FFFFFF" width="54" height="16.078"/>
		<g opacity="0.8">
			<text transform="matrix(1 0 0 1 264 173.1274)" fill="#673694" font-family="'Montserrat-Regular'" font-size="10">Dronfield</text>
		</g>
		<rect x="678.666" y="395.258" fill="#FFFFFF" width="50.834" height="16.078"/>
		<g opacity="0.8">
			<text transform="matrix(1 0 0 1 682.084 406.9419)" fill="#673694" font-family="'Montserrat-Regular'" font-size="10">Spalding</text>
		</g>
		<rect x="559.584" y="473.389" fill="#FFFFFF" width="50.833" height="16.078"/>
		<g opacity="0.8">
			<text transform="matrix(1 0 0 1 563.3125 484.4497)" fill="#673694" font-family="'Montserrat-Regular'" font-size="10">Stamford</text>
		</g>
		<rect x="507.084" y="10.781" fill="#FFFFFF" width="66.583" height="16.078"/>
		<g opacity="0.8">
			<text transform="matrix(1 0 0 1 511.6685 21.6089)" fill="#673694" font-family="'Montserrat-Regular'" font-size="10">Scunthorpe</text>
		</g>
	</g>
</g>
</svg>
